<svg viewBox="0 0 64 64" width="64px" height="64px" xmlns="http://www.w3.org/2000/svg">
  <defs>
    <linearGradient gradientUnits="userSpaceOnUse" x1="32" y1="1.5" x2="32" y2="62.5" id="gradient-0" gradientTransform="matrix(0.706314, -0.707899, 1.050742, 1.04839, -24.225776, 20.99888)">
      <stop offset="0" style="stop-color: rgb(8, 255, 0);"></stop>
      <stop offset="1" style="stop-color: rgb(31, 159, 26);"></stop>
    </linearGradient>
  </defs>
  <path d="M 62.5 32 A 30.5 30.5 0 0 1 32 62.5 A 30.5 30.5 0 0 1 1.5 32 A 30.5 30.5 0 0 1 32 1.5 A 30.5 30.5 0 0 1 62.5 32 Z" style="fill: none; stroke-width: 3px;"></path>
  <path d="M 64 32 C 64 40.488 59.999 49.073 54.583 54.67 C 48.985 60.087 40.49 64 32 64 C 23.512 64 14.927 59.999 9.33 54.583 C 3.913 48.985 0 40.49 0 32 C 0 23.512 3.999 14.927 9.417 9.33 C 15.016 3.913 23.51 0 32 0 C 40.488 0 49.073 3.999 54.67 9.417 C 60.087 15.016 64 23.51 64 32 Z M 47.715 16.286 C 43.397 12.017 38.482 9.778 32 9.778 C 25.518 9.778 20.604 12.016 16.286 16.285 C 12.018 20.602 9.778 25.518 9.778 32 C 9.778 38.482 12.013 43.395 16.286 47.714 C 20.603 51.982 25.518 54.222 32 54.222 C 38.482 54.222 43.396 51.984 47.714 47.715 C 51.983 43.397 54.222 38.482 54.222 32 C 54.222 25.518 51.986 20.604 47.715 16.286 Z" style="fill: url(#gradient-0); stroke-linecap: round; stroke-linejoin: round;"></path>
</svg>