<svg viewBox="0 0 64 64" width="64px" height="64px" xmlns="http://www.w3.org/2000/svg">
  <defs>
    <linearGradient gradientUnits="userSpaceOnUse" x1="32" y1="1.5" x2="32" y2="62.5" id="gradient-0" gradientTransform="matrix(0.706314, -0.707899, 1.050742, 1.04839, -24.225776, 20.99888)">
      <stop offset="0" style="stop-color: rgb(162, 0, 0);"></stop>
      <stop offset="1" style="stop-color: rgb(255, 0, 0);"></stop>
    </linearGradient>
  </defs>
  <path d="M 62.5 32 A 30.5 30.5 0 0 1 32 62.5 A 30.5 30.5 0 0 1 1.5 32 A 30.5 30.5 0 0 1 32 1.5 A 30.5 30.5 0 0 1 62.5 32 Z" style="fill: none; stroke-width: 3px;"></path>
  <path d="M 64 32 C 64 40.729 60.336 48.919 54.627 54.627 C 48.919 60.336 40.729 64 32 64 C 23.271 64 15.081 60.336 9.373 54.627 C 3.664 48.919 0 40.729 0 32 C 0 23.271 3.664 15.081 9.373 9.373 C 15.081 3.664 23.271 0 32 0 C 40.729 0 48.919 3.664 54.627 9.373 C 60.336 15.081 64 23.271 64 32 Z M 52.506 11.494 C 47.176 6.164 40.116 3 32 3 C 23.884 3 16.824 6.164 11.494 11.494 C 6.164 16.824 3 23.884 3 32 C 3 40.116 6.164 47.176 11.494 52.506 C 16.824 57.836 23.884 61 32 61 C 40.116 61 47.176 57.836 52.506 52.506 C 57.836 47.176 61 40.116 61 32 C 61 23.884 57.836 16.824 52.506 11.494 Z" style="fill: url(#gradient-0);"></path>
</svg>